# xmcd CD database file
#
# Track frame offsets:
#	150
#	22110
#	48760
#	74745
#	102470
#	126820
#	137970
#	154123
#	169018
#	192645
#	212930
#	241595
#
# Disc length: 3527 seconds
#
# Revision: 0
# Processed by: cddbd v1.5.2PL0 Copyright (c) Steve Scherf et al.
# Submitted via: CDex 1.51
#
DISCID=b30dc50c
DTITLE=John Thulin 'Whad'Ya Know?' Trio - Solo
DYEAR=1900
DGENRE=Jazz
TTITLE0=Yesterdays
TTITLE1=The Gift
TTITLE2=Just Once
TTITLE3=New Song
TTITLE4=But Beautiful
TTITLE5=Confirmation
TTITLE6=Boogie #2
TTITLE7=Gentle Giant
TTITLE8=Levitation
TTITLE9=Invitation
TTITLE10=Johnny's Blues
TTITLE11=Round Midnight
EXTD=
EXTT0=
EXTT1=
EXTT2=
EXTT3=
EXTT4=
EXTT5=
EXTT6=
EXTT7=
EXTT8=
EXTT9=
EXTT10=
EXTT11=
PLAYORDER=
